<?xml version="1.0" encoding="utf-8"?>
<!-- Generator: Adobe Illustrator 24.0.1, SVG Export Plug-In . SVG Version: 6.00 Build 0)  -->
<svg version="1.1" id="Layer_1" xmlns="http://www.w3.org/2000/svg" xmlns:xlink="http://www.w3.org/1999/xlink" x="0px" y="0px"
	 viewBox="0 0 150.6 150.6" style="enable-background:new 0 0 150.6 150.6;" xml:space="preserve">
<style type="text/css">
	.st0{fill-rule:evenodd;clip-rule:evenodd;fill:#FFFFFF;}
	.st1{fill-rule:evenodd;clip-rule:evenodd;}
</style>
<g>
	<path class="st0" d="M0,0h150.6v150.6H0V0z"/>
	<path class="st1" d="M120.3,78.1v-5.8h5.2v-1.2h-5.2v-5.8c1.7-0.3,3.5-0.3,5.5,0v-1.2h-7.6v14l-4.4-5v-0.9c2-0.6,2.9-2,2.9-4.4
		s-2.3-3.8-4.4-3.8h-5v15.1h2.3V64.8c2,0,4.4,0.6,4.4,2.9c0,2.3-1.2,3.5-2.9,4.1v0.9l6.7,7.9l2.6,0.6l-1.2-1.7h6.7l1.2-2.6
		C124.9,78.1,122.6,78.7,120.3,78.1L120.3,78.1z M105.7,64.4h-1.2v8.7c0,3.2,0,5.5-2.6,5.5S99,77.1,99,73.1v-8.7h-1.7v9.3
		c0,4.1,0.6,6.7,5,6.7c4.1,0,3.8-4.7,3.8-6.7v-9.3H105.7z M57.4,79.5h1.7V64.4h-1.7V79.5z M92,64.4l-0.9,1.5l-7.3,13.7h2.3l2.9-6.1
		h3.5l1.5,6.1h2.3l-3.8-15.1L92,64.4L92,64.4z M91.5,71.7h-1.2l1.2-2.6l0.3-0.6l0.9,3.5h-1.2C91.5,72,91.5,71.7,91.5,71.7z"/>
	<path class="st1" d="M82.1,83.3l5.3-24.4H85l-1.2,5.5h-11V76l-9.9-11.6h-1.5v15.1h1.5V67.9l9.9,11.6h1.5v-14c1.2-0.3,2-0.3,2.9,0.3
		v13.7h1.7V65.8c0.9-0.6,2.9-0.9,4.4,0.3l-3.2,18.3l11.4-0.3h1.2l0.3-2h-1.5L82.1,83.3L82.1,83.3z M52.7,64.4l-0.9,1.5l-5.2,10.5
		c-0.3-0.9-0.6-1.5-1.2-2c-2-2.9-7.3-6.4-7.6-10.2c-0.3-2.6,1.7-4.4,4.4-4.7c1.7,0,4.4,1.5,5.2,2.9l1.7-1.2c-1.5-2.3-5-2.9-7.3-2.9
		c-1.7,0-3.5,1.2-4.7,2.3c-0.9,0.9-1.7,2-1.7,2.9v1.2c-3.5-1.2-7.3-0.3-7,4.4c0.3,2.6,5,4.4,5.5,6.1c0.6,1.5,1.2,3.5-1.7,3.5
		c-2.3,0.3-3.5-1.5-3.5-1.7c-1.2,1.5-6.4,2-6.7,1.5v-5.8h5.2v-1.2H22V66c1.7-0.3,3.5-0.3,5.5,0v-1.2h-7.3l0,0h-0.9l-5.2,10.8
		l-2-10.8h-0.6l4.1-5.5H14L7,69.6H6.4L3.8,59.1H2l2.3,12.5L1.7,84.5h2L6.6,72l4.1-5.2L13,80.2h0.6l6.7-13.4v12.8H28l0.6-1.2
		c0.9,0.9,2.3,1.2,3.5,1.2h1.2v2.9c1.2,0.9,2.6,1.7,4.4,2c2.9,0.6,6.1,0.3,8.2-2.3c0.6-0.9,0.9-1.5,1.2-2.6h0.3l2.9-6.1h3.5l1.5,6.1
		h2.3l-3.8-15.1L52.7,64.4L52.7,64.4L52.7,64.4z M39.9,83.9c-1.2,0-1.7-0.3-2.6-0.6c-1.7-0.6-2.6-2-3.8-4.1c3.5-0.3,4.1-2.6,2.9-5.2
		c-0.9-2-6.4-4.7-6.4-6.7c0-3.2,4.1-3.2,5.5-0.3l0.3-0.6c0.3,0.9,0.9,1.7,1.5,2.3c2,2.6,5,4.4,6.4,7C45.7,79.8,43.4,83.9,39.9,83.9
		L39.9,83.9z M51.8,71.7h-1.2l1.2-2.6l0.3-0.6L53,72h-1.2V71.7z M140.1,64.4h-1.5V76l-9.9-11.6h-1.5v15.1h1.5V67.9l9.9,11.6h1.5v-14
		c1.2-0.3,2-0.3,2.9,0.3v13.7h1.7V65.8c0.9-0.9,2-0.6,4.1,0v-1.5L140.1,64.4L140.1,64.4z M62.9,88.9c-0.3,0-0.9,0-1.2,0.3
		c-0.3,0.3-0.6,0.6-0.9,0.9c-0.3,0.3-0.3,0.9-0.3,1.2c0,0.3,0,0.3,0,0.6c0,0.3,0.3,0.3,0.3,0.3c0.3,0,0.3,0.3,0.6,0.3s0.6,0,0.9-0.3
		c0.3,0,0.6-0.3,0.9-0.6l0,0c-0.3,0.3-0.3,0.3-0.6,0.3s-0.3,0-0.6,0s-0.3,0-0.6-0.3c0,0-0.3-0.3-0.3-0.6c0-0.3,0-0.6,0.3-1.2
		c0-0.3,0.3-0.6,0.6-0.9C62.3,89.1,62.6,89.1,62.9,88.9C62.9,89.1,62.9,89.1,62.9,88.9c0.3,0.3,0.3,0.3,0.3,0.3s0,0-0.3,0.3
		l-0.3,0.3v0.3h0.3c0,0,0.3,0,0.3-0.3c0,0,0.3-0.3,0.3-0.6c0-0.3,0-0.3-0.3-0.6C63.2,88.9,63.2,88.9,62.9,88.9L62.9,88.9z M67,88.9
		c-0.3,0-0.3,0-0.6,0s-0.6,0-0.6,0h-0.3c-0.3,0-0.6,0.3-0.9,0.6c-0.3,0.3-0.3,0.6-0.6,0.9c0,0.3-0.3,0.6-0.3,0.9
		c0,0.3,0,0.6,0.3,0.9c0.3,0.3,0.6,0.3,0.9,0.3s0.6,0,0.6,0c0.6-0.3,1.2-0.6,1.5-1.2c0.3-0.3,0.3-0.9,0.3-1.2c0-0.3,0-0.3,0-0.6
		C67.3,89.1,67.3,89.1,67,88.9L67,88.9z M66.4,90.6c0,0.3-0.3,0.9-0.3,1.2c0,0.3-0.3,0.3-0.3,0.3s0,0-0.3,0.3h-0.3h-0.3v-0.3
		c0-0.6,0-1.2,0.3-1.7s0.3-0.9,0.6-0.9c0,0,0,0,0-0.3h0.3h0.3v0.3C66.4,89.7,66.4,90,66.4,90.6L66.4,90.6z M69,92.1L69,92.1L69,92.1
		L69,92.1c-0.3,0-0.3-0.3,0-0.6l1.2-4.1v-0.3h-0.3l-1.2,0.3l0,0c0.3,0,0.3,0,0.3,0s0,0,0,0.3V88l-1.2,3.5c0,0.3,0,0.3,0,0.6v0.3h0.3
		c0.3,0,0.3,0,0.6-0.3c0.3-0.3,0.6-0.6,0.6-0.9H69C69.3,91.8,69.3,91.8,69,92.1L69,92.1z M87.1,88.9c-0.3,0-0.3,0-0.6,0
		s-0.6,0-0.6,0h-0.3c-0.3,0-0.6,0.3-0.9,0.6c-0.3,0.3-0.3,0.6-0.6,0.9c0,0.3-0.3,0.6-0.3,0.9c0,0.3,0,0.6,0.3,0.9
		c0.3,0.3,0.6,0.3,0.9,0.3s0.6,0,0.6,0c0.6-0.3,1.2-0.6,1.5-1.2c0.3-0.3,0.3-0.9,0.3-1.2c0-0.3,0-0.3,0-0.6
		C87.4,89.1,87.1,89.1,87.1,88.9L87.1,88.9z M86.5,90.6c0,0.3-0.3,0.9-0.3,1.2c0,0.3-0.3,0.3-0.3,0.3s0,0.3-0.3,0.3h-0.3H85v-0.3
		c0-0.6,0-1.2,0.3-1.7s0.3-0.9,0.6-0.9c0,0,0,0,0-0.3h0.3h0.3v0.3C86.5,89.7,86.5,90.3,86.5,90.6L86.5,90.6z M83.3,87.1
		c-0.3,0-0.3,0-0.3,0.3l-0.3,0.3c0,0.3,0,0.3,0.3,0.3l0.3,0.3c0,0,0.3,0,0.3-0.3l0.3-0.3c0-0.3,0-0.3-0.3-0.3
		C83.6,87.1,83.6,87.1,83.3,87.1z M91.5,91.5l-0.3,0.3l0,0l0,0l0,0c0,0,0,0,0-0.3l0.6-1.7c0-0.3,0-0.3,0-0.6v-0.3l-0.3-0.3
		c0,0-0.3,0-0.6,0s-0.3,0.3-0.6,0.6C90,89.5,90,89.7,89.4,90l0.6-1.7h-0.3l-1.5,0.3l0,0h0.3l0,0l0,0c0,0,0,0.3,0,0.6L88,91.8h0.9
		l0.3-1.2c0.3-0.6,0.6-1.2,1.2-1.5l0.3-0.3l0,0l0,0c0,0,0,0,0,0.3l-0.3,2.3c0,0.3,0,0.3,0,0.6v0.3h0.3
		C90.9,92.6,91.5,92.1,91.5,91.5L91.5,91.5L91.5,91.5L91.5,91.5z M83.6,88.9L83.6,88.9l-1.5,0.3v0.3l0,0h0.3l0,0v0.3l-0.6,1.7l0,0
		v0.3v0.3l0,0h0.3c0.6,0,0.9-0.3,1.2-1.2l0,0C83,91.2,83,91.2,83,91.5l0,0l0,0l0,0c0,0,0,0,0-0.3L83.6,88.9z M78.9,89.1
		c0,0-0.3-0.3-0.6-0.3s-0.9,0-1.2,0.3c-0.3,0.3-0.6,0.6-0.9,0.9C76,90.3,76,90.9,76,91.2c0,0.3,0,0.3,0,0.6c0,0.3,0.3,0.3,0.3,0.3
		c0.3,0,0.3,0.3,0.6,0.3s0.6,0,1.2-0.3c0.3,0,0.6-0.3,0.6-0.6l0,0c-0.3,0.3-0.3,0.3-0.6,0.3s-0.3,0-0.6,0s-0.3,0-0.6-0.3
		c0,0-0.3-0.3-0.3-0.6c0-0.3,0-0.6,0.3-1.2c0-0.3,0.3-0.6,0.6-0.9c0.3-0.3,0.3-0.3,0.6-0.3c0,0,0,0,0.3,0l0,0c0,0,0,0-0.3,0.3
		l-0.3,0.3v0.3h0.3c0,0,0.3,0,0.3-0.3c0,0,0.3-0.3,0.3-0.6C79.2,89.4,79.2,89.1,78.9,89.1L78.9,89.1z M75.1,88.9
		c-0.3,0-0.6,0-0.9,0.3c0,0-0.3,0-0.3,0.3c-0.3,0.3-0.9,0.6-1.2,1.2c0,0.3-0.3,0.6-0.3,0.9c0,0.3,0,0.3,0,0.6v0.3c0,0,0,0.3,0.3,0.3
		c0.4,0.1,0.7,0.1,1,0.1c0.3,0,0.3,0,0.6,0h0.3c0.3-0.3,0.6-0.3,0.9-0.9l0,0c-0.3,0.3-0.6,0.3-0.6,0.6h-0.3l0,0
		c-0.3,0-0.3,0-0.6-0.3c0,0-0.3-0.3-0.3-0.6v-0.3c0.3,0,0.6,0,0.6,0l0,0c0.3,0,0.6-0.3,0.9-0.3s0.3-0.3,0.6-0.6
		c0-0.3,0.3-0.3,0.3-0.6c0-0.3,0-0.3-0.3-0.3C75.4,88.9,75.1,88.9,75.1,88.9L75.1,88.9z M74.8,89.7c0,0.3-0.3,0.3-0.3,0.6
		c0,0-0.3,0-0.3,0.3l0,0c0,0-0.3,0-0.6,0c0.4-0.6,0.4-1.2,0.7-1.5l0,0c0.3-0.3,0.3-0.3,0.3-0.3s0,0,0.3,0c0,0,0,0,0,0.3
		C74.9,89.4,74.8,89.7,74.8,89.7L74.8,89.7z M71.4,92.1L71.4,92.1C71.1,92.1,71.1,92.1,71.4,92.1C71.1,92.1,71.1,92.1,71.4,92.1
		c-0.3,0-0.3-0.3,0-0.6l1.2-4.1v-0.3h-0.3l-1.2,0.3l0,0h0.3c0,0,0,0,0,0.3V88l-1.2,3.5l0,0c0,0.3,0,0.3,0,0.6v0.3l0,0h0.3
		c0.3,0,0.3,0,0.6-0.3c0.3-0.3,0.6-0.6,0.6-0.9h-0.3C71.6,91.8,71.4,91.8,71.4,92.1L71.4,92.1z M81.3,89.4h0.3v-0.3v-0.2H81l0.3-1.2
		H81c-0.3,0.3-0.6,0.6-0.9,0.9c-0.3,0.3-0.6,0.3-0.9,0.6v0.3h0.6l-0.6,2c0,0.3,0,0.3,0,0.6c0,0,0,0.3,0.3,0.3h0.3
		c0.3,0,0.3,0,0.6-0.3c0.3,0,0.3-0.3,0.6-0.6l0,0c-0.3,0.3-0.3,0.3-0.3,0.6l0,0l0,0l0,0v-0.3L81.3,89.4L81.3,89.4z"/>
</g>
</svg>
